<?xml version="1.0"?>
<svg width="512" height="512" viewBox="0 0 512 512" version="1.1" xmlns="http://www.w3.org/2000/svg" xmlns:xlink="http://www.w3.org/1999/xlink">
	<line x1="512" y1="256" x2="256" y2="256" stroke-width="3" stroke="#ff9800"/>
	<line x1="1" y1="247" x2="236" y2="255" stroke-width="3" stroke="#ff9800"/>
	<line x1="508" y1="274" x2="296" y2="259" stroke-width="3" stroke="#ff9800"/>
	<line x1="9" y1="230" x2="196" y2="250" stroke-width="3" stroke="#ff9800"/>
	<line x1="497" y1="290" x2="335" y2="267" stroke-width="3" stroke="#ff9800"/>
	<line x1="24" y1="215" x2="158" y2="239" stroke-width="3" stroke="#ff9800"/>
	<line x1="478" y1="303" x2="371" y2="280" stroke-width="3" stroke="#ff9800"/>
	<line x1="45" y1="203" x2="125" y2="223" stroke-width="3" stroke="#ff9800"/>
	<line x1="454" y1="313" x2="402" y2="298" stroke-width="3" stroke="#ff9800"/>
	<line x1="72" y1="196" x2="96" y2="204" stroke-width="3" stroke="#ff9800"/>
	<line x1="424" y1="317" x2="428" y2="319" stroke-width="3" stroke="#ff9800"/>
	<line x1="104" y1="195" x2="74" y2="182" stroke-width="3" stroke="#ff9800"/>
	<line x1="391" y1="316" x2="447" y2="341" stroke-width="3" stroke="#ff9800"/>
	<line x1="138" y1="199" x2="58" y2="160" stroke-width="3" stroke="#ff9800"/>
	<line x1="356" y1="309" x2="459" y2="364" stroke-width="3" stroke="#ff9800"/>
	<line x1="174" y1="209" x2="50" y2="137" stroke-width="3" stroke="#ff9800"/>
	<line x1="320" y1="296" x2="464" y2="386" stroke-width="3" stroke="#ff9800"/>
	<line x1="210" y1="225" x2="49" y2="116" stroke-width="3" stroke="#ff9800"/>
	<line x1="284" y1="277" x2="461" y2="405" stroke-width="3" stroke="#ff9800"/>
	<line x1="244" y1="247" x2="55" y2="99" stroke-width="3" stroke="#ff9800"/>
	<line x1="252" y1="253" x2="452" y2="421" stroke-width="3" stroke="#ff9800"/>
	<line x1="275" y1="273" x2="67" y2="86" stroke-width="3" stroke="#ff9800"/>
	<line x1="223" y1="224" x2="437" y2="431" stroke-width="3" stroke="#ff9800"/>
	<line x1="302" y1="303" x2="84" y2="78" stroke-width="3" stroke="#ff9800"/>
	<line x1="199" y1="193" x2="418" y2="435" stroke-width="3" stroke="#ff9800"/>
	<line x1="323" y1="336" x2="106" y2="77" stroke-width="3" stroke="#ff9800"/>
	<line x1="181" y1="159" x2="394" y2="433" stroke-width="3" stroke="#ff9800"/>
	<line x1="338" y1="369" x2="130" y2="83" stroke-width="3" stroke="#ff9800"/>
	<line x1="168" y1="126" x2="369" y2="424" stroke-width="3" stroke="#ff9800"/>
	<line x1="347" y1="402" x2="156" y2="95" stroke-width="3" stroke="#ff9800"/>
	<line x1="163" y1="94" x2="344" y2="408" stroke-width="3" stroke="#ff9800"/>
	<line x1="350" y1="433" x2="181" y2="115" stroke-width="3" stroke="#ff9800"/>
	<line x1="163" y1="65" x2="319" y2="385" stroke-width="3" stroke="#ff9800"/>
	<line x1="347" y1="460" x2="205" y2="141" stroke-width="3" stroke="#ff9800"/>
	<line x1="169" y1="41" x2="296" y2="356" stroke-width="3" stroke="#ff9800"/>
	<line x1="338" y1="482" x2="226" y2="172" stroke-width="3" stroke="#ff9800"/>
	<line x1="180" y1="22" x2="278" y2="322" stroke-width="3" stroke="#ff9800"/>
	<line x1="325" y1="497" x2="242" y2="208" stroke-width="3" stroke="#ff9800"/>
	<line x1="194" y1="9" x2="263" y2="285" stroke-width="3" stroke="#ff9800"/>
	<line x1="309" y1="506" x2="254" y2="247" stroke-width="3" stroke="#ff9800"/>
	<line x1="212" y1="4" x2="254" y2="245" stroke-width="3" stroke="#ff9800"/>
	<line x1="291" y1="508" x2="260" y2="287" stroke-width="3" stroke="#ff9800"/>
	<line x1="230" y1="7" x2="251" y2="205" stroke-width="3" stroke="#ff9800"/>
	<line x1="273" y1="501" x2="261" y2="327" stroke-width="3" stroke="#ff9800"/>
	<line x1="248" y1="17" x2="253" y2="166" stroke-width="3" stroke="#ff9800"/>
	<line x1="256" y1="488" x2="256" y2="365" stroke-width="3" stroke="#ff9800"/>
	<line x1="264" y1="34" x2="260" y2="129" stroke-width="3" stroke="#ff9800"/>
	<line x1="241" y1="467" x2="246" y2="400" stroke-width="3" stroke="#ff9800"/>
	<line x1="277" y1="58" x2="273" y2="96" stroke-width="3" stroke="#ff9800"/>
	<line x1="230" y1="440" x2="231" y2="430" stroke-width="3" stroke="#ff9800"/>
	<line x1="286" y1="87" x2="289" y2="69" stroke-width="3" stroke="#ff9800"/>
	<line x1="224" y1="408" x2="214" y2="455" stroke-width="3" stroke="#ff9800"/>
	<line x1="290" y1="121" x2="308" y2="47" stroke-width="3" stroke="#ff9800"/>
	<line x1="223" y1="373" x2="194" y2="473" stroke-width="3" stroke="#ff9800"/>
	<line x1="288" y1="158" x2="328" y2="33" stroke-width="3" stroke="#ff9800"/>
	<line x1="227" y1="335" x2="173" y2="483" stroke-width="3" stroke="#ff9800"/>
	<line x1="280" y1="196" x2="349" y2="26" stroke-width="3" stroke="#ff9800"/>
	<line x1="238" y1="297" x2="153" y2="486" stroke-width="3" stroke="#ff9800"/>
	<line x1="267" y1="234" x2="368" y2="27" stroke-width="3" stroke="#ff9800"/>
	<line x1="254" y1="260" x2="136" y2="482" stroke-width="3" stroke="#ff9800"/>
	<line x1="248" y1="270" x2="384" y2="35" stroke-width="3" stroke="#ff9800"/>
	<line x1="275" y1="225" x2="122" y2="471" stroke-width="3" stroke="#ff9800"/>
	<line x1="224" y1="303" x2="396" y2="49" stroke-width="3" stroke="#ff9800"/>
	<line x1="301" y1="194" x2="112" y2="454" stroke-width="3" stroke="#ff9800"/>
	<line x1="197" y1="331" x2="402" y2="69" stroke-width="3" stroke="#ff9800"/>
	<line x1="329" y1="169" x2="109" y2="432" stroke-width="3" stroke="#ff9800"/>
	<line x1="168" y1="354" x2="403" y2="93" stroke-width="3" stroke="#ff9800"/>
	<line x1="359" y1="149" x2="111" y2="406" stroke-width="3" stroke="#ff9800"/>
	<line x1="137" y1="371" x2="397" y2="120" stroke-width="3" stroke="#ff9800"/>
	<line x1="390" y1="136" x2="121" y2="378" stroke-width="3" stroke="#ff9800"/>
	<line x1="107" y1="381" x2="384" y2="149" stroke-width="3" stroke="#ff9800"/>
	<line x1="419" y1="129" x2="137" y2="349" stroke-width="3" stroke="#ff9800"/>
	<line x1="80" y1="384" x2="365" y2="177" stroke-width="3" stroke="#ff9800"/>
	<line x1="445" y1="129" x2="159" y2="321" stroke-width="3" stroke="#ff9800"/>
	<line x1="55" y1="381" x2="339" y2="204" stroke-width="3" stroke="#ff9800"/>
	<line x1="467" y1="134" x2="188" y2="295" stroke-width="3" stroke="#ff9800"/>
	<line x1="36" y1="373" x2="308" y2="228" stroke-width="3" stroke="#ff9800"/>
	<line x1="483" y1="145" x2="221" y2="273" stroke-width="3" stroke="#ff9800"/>
	<line x1="23" y1="360" x2="273" y2="248" stroke-width="3" stroke="#ff9800"/>
	<line x1="493" y1="160" x2="257" y2="255" stroke-width="3" stroke="#ff9800"/>
	<line x1="16" y1="343" x2="236" y2="263" stroke-width="3" stroke="#ff9800"/>
	<line x1="496" y1="178" x2="296" y2="243" stroke-width="3" stroke="#ff9800"/>
	<line x1="17" y1="324" x2="196" y2="273" stroke-width="3" stroke="#ff9800"/>
	<line x1="491" y1="197" x2="335" y2="236" stroke-width="3" stroke="#ff9800"/>
	<line x1="26" y1="305" x2="158" y2="277" stroke-width="3" stroke="#ff9800"/>
	<line x1="479" y1="217" x2="373" y2="235" stroke-width="3" stroke="#ff9800"/>
	<line x1="42" y1="286" x2="121" y2="275" stroke-width="3" stroke="#ff9800"/>
	<line x1="460" y1="235" x2="409" y2="240" stroke-width="3" stroke="#ff9800"/>
	<line x1="64" y1="269" x2="87" y2="268" stroke-width="3" stroke="#ff9800"/>
	<line x1="434" y1="250" x2="440" y2="250" stroke-width="3" stroke="#ff9800"/>
	<line x1="93" y1="256" x2="59" y2="256" stroke-width="3" stroke="#ff9800"/>
	<line x1="403" y1="261" x2="466" y2="263" stroke-width="3" stroke="#ff9800"/>
	<line x1="127" y1="247" x2="36" y2="241" stroke-width="3" stroke="#ff9800"/>
	<line x1="367" y1="268" x2="485" y2="280" stroke-width="3" stroke="#ff9800"/>
	<line x1="164" y1="243" x2="20" y2="223" stroke-width="3" stroke="#ff9800"/>
	<line x1="329" y1="269" x2="497" y2="299" stroke-width="3" stroke="#ff9800"/>
	<line x1="203" y1="245" x2="11" y2="204" stroke-width="3" stroke="#ff9800"/>
	<line x1="289" y1="264" x2="502" y2="317" stroke-width="3" stroke="#ff9800"/>
	<line x1="243" y1="252" x2="10" y2="186" stroke-width="3" stroke="#ff9800"/>
	<line x1="250" y1="254" x2="499" y2="335" stroke-width="3" stroke="#ff9800"/>
	<line x1="282" y1="265" x2="17" y2="169" stroke-width="3" stroke="#ff9800"/>
	<line x1="212" y1="238" x2="489" y2="350" stroke-width="3" stroke="#ff9800"/>
	<line x1="317" y1="283" x2="30" y2="156" stroke-width="3" stroke="#ff9800"/>
	<line x1="178" y1="218" x2="473" y2="362" stroke-width="3" stroke="#ff9800"/>
	<line x1="349" y1="306" x2="50" y2="146" stroke-width="3" stroke="#ff9800"/>
	<line x1="149" y1="194" x2="450" y2="368" stroke-width="3" stroke="#ff9800"/>
	<line x1="376" y1="331" x2="75" y2="143" stroke-width="3" stroke="#ff9800"/>
	<line x1="125" y1="168" x2="423" y2="369" stroke-width="3" stroke="#ff9800"/>
	<line x1="396" y1="358" x2="103" y2="145" stroke-width="3" stroke="#ff9800"/>
	<line x1="108" y1="140" x2="393" y2="363" stroke-width="3" stroke="#ff9800"/>
	<line x1="410" y1="385" x2="134" y2="154" stroke-width="3" stroke="#ff9800"/>
	<line x1="98" y1="114" x2="362" y2="351" stroke-width="3" stroke="#ff9800"/>
	<line x1="417" y1="411" x2="166" y2="169" stroke-width="3" stroke="#ff9800"/>
	<line x1="94" y1="89" x2="330" y2="333" stroke-width="3" stroke="#ff9800"/>
	<line x1="417" y1="435" x2="197" y2="191" stroke-width="3" stroke="#ff9800"/>
	<line x1="97" y1="67" x2="300" y2="308" stroke-width="3" stroke="#ff9800"/>
	<line x1="411" y1="454" x2="226" y2="218" stroke-width="3" stroke="#ff9800"/>
	<line x1="106" y1="50" x2="273" y2="279" stroke-width="3" stroke="#ff9800"/>
	<line x1="399" y1="468" x2="251" y2="249" stroke-width="3" stroke="#ff9800"/>
	<line x1="120" y1="39" x2="250" y2="246" stroke-width="3" stroke="#ff9800"/>
	<line x1="383" y1="476" x2="272" y2="284" stroke-width="3" stroke="#ff9800"/>
	<line x1="138" y1="35" x2="231" y2="210" stroke-width="3" stroke="#ff9800"/>
	<line x1="364" y1="477" x2="288" y2="321" stroke-width="3" stroke="#ff9800"/>
	<line x1="159" y1="38" x2="219" y2="172" stroke-width="3" stroke="#ff9800"/>
	<line x1="343" y1="470" x2="297" y2="358" stroke-width="3" stroke="#ff9800"/>
	<line x1="180" y1="48" x2="212" y2="135" stroke-width="3" stroke="#ff9800"/>
	<line x1="321" y1="456" x2="301" y2="395" stroke-width="3" stroke="#ff9800"/>
	<line x1="201" y1="65" x2="211" y2="100" stroke-width="3" stroke="#ff9800"/>
	<line x1="301" y1="435" x2="299" y2="428" stroke-width="3" stroke="#ff9800"/>
	<line x1="221" y1="90" x2="216" y2="69" stroke-width="3" stroke="#ff9800"/>
	<line x1="283" y1="408" x2="291" y2="457" stroke-width="3" stroke="#ff9800"/>
	<line x1="237" y1="120" x2="226" y2="42" stroke-width="3" stroke="#ff9800"/>
	<line x1="269" y1="375" x2="280" y2="481" stroke-width="3" stroke="#ff9800"/>
	<line x1="249" y1="155" x2="240" y2="22" stroke-width="3" stroke="#ff9800"/>
	<line x1="259" y1="339" x2="264" y2="498" stroke-width="3" stroke="#ff9800"/>
	<line x1="256" y1="193" x2="256" y2="8" stroke-width="3" stroke="#ff9800"/>
	<line x1="254" y1="299" x2="247" y2="508" stroke-width="3" stroke="#ff9800"/>
	<line x1="258" y1="233" x2="274" y2="2" stroke-width="3" stroke="#ff9800"/>
	<line x1="256" y1="259" x2="229" y2="511" stroke-width="3" stroke="#ff9800"/>
	<line x1="254" y1="274" x2="292" y2="3" stroke-width="3" stroke="#ff9800"/>
	<line x1="263" y1="219" x2="212" y2="505" stroke-width="3" stroke="#ff9800"/>
	<line x1="244" y1="313" x2="308" y2="12" stroke-width="3" stroke="#ff9800"/>
	<line x1="275" y1="181" x2="197" y2="493" stroke-width="3" stroke="#ff9800"/>
	<line x1="229" y1="349" x2="321" y2="28" stroke-width="3" stroke="#ff9800"/>
	<line x1="292" y1="146" x2="185" y2="473" stroke-width="3" stroke="#ff9800"/>
	<line x1="210" y1="381" x2="331" y2="51" stroke-width="3" stroke="#ff9800"/>
	<line x1="312" y1="117" x2="178" y2="448" stroke-width="3" stroke="#ff9800"/>
	<line x1="188" y1="408" x2="335" y2="78" stroke-width="3" stroke="#ff9800"/>
	<line x1="335" y1="93" x2="177" y2="419" stroke-width="3" stroke="#ff9800"/>
	<line x1="165" y1="428" x2="334" y2="109" stroke-width="3" stroke="#ff9800"/>
	<line x1="360" y1="76" x2="181" y2="386" stroke-width="3" stroke="#ff9800"/>
	<line x1="140" y1="441" x2="326" y2="143" stroke-width="3" stroke="#ff9800"/>
	<line x1="384" y1="66" x2="192" y2="352" stroke-width="3" stroke="#ff9800"/>
	<line x1="117" y1="448" x2="313" y2="178" stroke-width="3" stroke="#ff9800"/>
	<line x1="406" y1="64" x2="208" y2="317" stroke-width="3" stroke="#ff9800"/>
	<line x1="96" y1="447" x2="293" y2="212" stroke-width="3" stroke="#ff9800"/>
	<line x1="425" y1="68" x2="231" y2="284" stroke-width="3" stroke="#ff9800"/>
	<line x1="79" y1="440" x2="268" y2="243" stroke-width="3" stroke="#ff9800"/>
	<line x1="440" y1="78" x2="258" y2="254" stroke-width="3" stroke="#ff9800"/>
	<line x1="67" y1="427" x2="239" y2="271" stroke-width="3" stroke="#ff9800"/>
	<line x1="449" y1="94" x2="289" y2="228" stroke-width="3" stroke="#ff9800"/>
	<line x1="61" y1="409" x2="206" y2="295" stroke-width="3" stroke="#ff9800"/>
	<line x1="452" y1="114" x2="323" y2="207" stroke-width="3" stroke="#ff9800"/>
	<line x1="61" y1="387" x2="172" y2="313" stroke-width="3" stroke="#ff9800"/>
	<line x1="448" y1="136" x2="358" y2="192" stroke-width="3" stroke="#ff9800"/>
	<line x1="69" y1="364" x2="137" y2="325" stroke-width="3" stroke="#ff9800"/>
	<line x1="436" y1="160" x2="392" y2="183" stroke-width="3" stroke="#ff9800"/>
	<line x1="84" y1="340" x2="103" y2="331" stroke-width="3" stroke="#ff9800"/>
	<line x1="418" y1="184" x2="425" y2="181" stroke-width="3" stroke="#ff9800"/>
	<line x1="106" y1="317" x2="72" y2="330" stroke-width="3" stroke="#ff9800"/>
	<line x1="393" y1="206" x2="454" y2="184" stroke-width="3" stroke="#ff9800"/>
	<line x1="134" y1="296" x2="45" y2="324" stroke-width="3" stroke="#ff9800"/>
	<line x1="362" y1="226" x2="478" y2="192" stroke-width="3" stroke="#ff9800"/>
	<line x1="167" y1="278" x2="24" y2="314" stroke-width="3" stroke="#ff9800"/>
	<line x1="327" y1="241" x2="496" y2="205" stroke-width="3" stroke="#ff9800"/>
	<line x1="204" y1="265" x2="9" y2="300" stroke-width="3" stroke="#ff9800"/>
	<line x1="288" y1="251" x2="507" y2="221" stroke-width="3" stroke="#ff9800"/>
	<line x1="244" y1="257" x2="2" y2="283" stroke-width="3" stroke="#ff9800"/>
	<line x1="248" y1="257" x2="511" y2="238" stroke-width="3" stroke="#ff9800"/>
	<line x1="285" y1="255" x2="2" y2="265" stroke-width="3" stroke="#ff9800"/>
</svg>
